PathFileType	4	(X/Y/Z)	Patient4_TMGait_0pt2_03_left_23.trc.trc
DataRate	CameraRate	NumFrames	NumMarkers	Units	OrigDataRate	OrigDataStartFrame	OrigNumFrames
48.780487804878	48.780487804878	4	33	mm	48.780487804878	1	       141
Frame#	Time	Sacral			L.Shoulder			Chest			R.Shoulder			Neck			R.ASIS			L.ASIS			R.Thigh.Superior			R.Thigh.Lateral			R.Thigh.Inferior			R.Patella			L.Thigh.Superior			L.Thigh.Lateral			L.Thigh.Inferior			L.Patella			L.Shank.Superior			L.Shank.Lateral			L.Shank.Inferior			R.Shank.Superior			R.Shank.Lateral			R.Shank.Inferior			R.Heel			R.Midfoot.Superior			R.Midfoot.Lateral			R.Toe			L.Heel			L.Midfoot.Lateral			L.Midfoot.Superior			L.Toe			L.Elbow			L.Wrist			R.Elbow			R.Wrist			
		X1	Y1	Z1	X2	Y2	Z2	X3	Y3	Z3	X4	Y4	Z4	X5	Y5	Z5	X6	Y6	Z6	X7	Y7	Z7	X8	Y8	Z8	X9	Y9	Z9	X10	Y10	Z10	X11	Y11	Z11	X12	Y12	Z12	X13	Y13	Z13	X14	Y14	Z14	X15	Y15	Z15	X16	Y16	Z16	X17	Y17	Z17	X18	Y18	Z18	X19	Y19	Z19	X20	Y20	Z20	X21	Y21	Z21	X22	Y22	Z22	X23	Y23	Z23	X24	Y24	Z24	X25	Y25	Z25	X26	Y26	Z26	X27	Y27	Z27	X28	Y28	Z28	X29	Y29	Z29	X30	Y30	Z30	X31	Y31	Z31	X32	Y32	Z32	X33	Y33	Z33	

1	48.100000000000	863.073141137592	997.187663155618	590.490824297452	1056.372255757084	1417.762905289402	405.243510728388	1156.570648870739	1347.904037893670	565.765245902584	1079.104615815190	1425.669412897058	740.212934657235	1034.251344142954	1482.120721790037	562.314593910978	1093.989402141438	925.749652859188	700.831233993999	1073.538845673011	950.516443453022	429.403709003469	1145.312313873087	731.586564306207	649.998484149008	1074.515378300088	613.128079907412	704.683501197257	1148.907232621772	570.459075009273	615.772640865657	1153.064667088768	473.934477048746	617.648141954797	1153.323885672756	769.812453735778	442.004851037883	1096.621142276912	639.652597464910	349.407538197386	1212.203656916847	583.764641489945	406.593535433127	1222.721099650133	493.225987034346	388.843041908379	1149.526402809911	430.461976671091	379.235192858584	1002.308347640735	405.121822925370	335.030834389317	980.775147407708	273.415992011617	379.515679064994	1105.288872823664	388.231459398202	619.754479641634	1018.514699897203	294.515539317971	680.070910430689	1037.696587367709	199.202698989212	607.800899948200	875.726064565810	48.841141112948	578.157071660718	1050.680904807834	96.856494774419	608.053293275521	961.863867002916	39.089415423943	648.357762596753	1169.462596603951	40.559077182364	630.418621639563	785.915588845449	217.094741612492	420.847344889781	838.398278378841	178.747300399606	333.352519297989	944.575498568688	180.717227046612	350.359772221348	1016.809819473542	69.466362206229	306.039678388950	969.746420347245	1071.941177454072	294.801092143630	964.036946205590	811.790580211506	305.835895165114	1080.756417096033	1089.966255604623	894.749098274398	1298.024614834312	949.854069872152	880.734997225606	
2	48.120500000000	861.810537058780	994.627050932345	592.841905020430	1053.009629537406	1416.553295033619	406.996705023424	1154.834060393948	1345.610983283979	566.024648697737	1079.642998513539	1422.481157418031	741.710718158459	1032.733655840645	1480.032321852109	564.484706320603	1094.182581443194	924.494184894832	701.507510094671	1071.210808102219	948.379526755055	430.203911579553	1145.559977806777	730.107996558846	650.672337316996	1075.476150760070	611.280914387035	705.288925237617	1149.725676015969	569.010986899806	616.017589123606	1154.023661631846	471.990317517232	617.789479794961	1153.543555071311	770.636205166164	442.360283886348	1099.143762908641	639.622982367380	349.766026281701	1216.076489440394	586.080913163012	406.134984823000	1228.126035588867	495.522501939972	388.283783416799	1155.315534634049	431.634597187966	379.001035540382	1008.045261830286	405.546266445096	334.650034376024	986.720570374289	273.904833241300	379.758294819642	1105.113978515100	386.344773950998	619.699250053519	1017.375092729358	293.612933328876	680.210137431381	1035.055876296839	198.275189592448	607.778095116377	871.619633946325	48.866072885547	578.245769624955	1046.629219182884	96.917774330691	608.184983082053	957.722709588145	39.043886226185	648.446628390791	1165.288013817977	40.509279033220	630.431418869217	791.761901839301	217.343971750723	421.041964474556	844.397487323896	178.690549224797	333.730902321760	950.659371197605	180.807463036390	350.825499510172	1023.095920373751	69.355958574106	306.903744252557	954.289255160000	1075.626537952155	297.830110278387	938.006415122636	816.720385346477	314.815088458644	1095.894501569317	1086.657332939247	893.229607148979	1319.085910292405	959.554801379002	875.077893083179	
3	48.141000000000	860.538945568669	992.171163360989	595.282850311736	1049.506716788319	1415.450467782947	408.756062587861	1153.065254598754	1343.393591118981	566.198194895687	1080.292972672666	1419.370399468664	743.160600041037	1031.179227457653	1478.025972993606	566.655536332521	1094.359740568630	923.214239365761	702.056592051905	1068.720569226744	946.367788703540	430.924768182132	1145.671997454751	728.623499776070	651.125695045096	1076.318165788172	609.462996915186	705.759840153218	1150.305685114876	567.560036435581	616.048959754372	1154.711199570375	470.060078398635	617.718858211206	1153.554675297365	771.488579230657	442.636867108329	1101.363484446203	639.616848362208	350.080291622263	1219.566135066362	588.350419691190	405.679369264226	1233.156759724391	497.866052149246	387.742039018894	1160.955995601654	432.777116153845	378.674792633508	1013.782112880431	405.357923784478	334.130439494549	993.287564624248	273.614470106021	379.659163251038	1104.699906487493	384.486552869995	619.510104400012	1016.068520108982	292.701862189440	680.270790088740	1032.224060556459	197.345303286014	607.692411779215	867.372074463359	48.864314337633	578.334194861232	1042.370880354744	96.900399544921	608.216253343706	953.444047910150	38.987407951777	648.537327325050	1160.979973459866	40.462960270477	630.442566143079	798.557800821402	215.861760776829	420.824967734014	851.480917710881	177.289844077465	333.637326882025	957.797802844426	180.009196682164	350.827317118638	1030.918214393184	68.793390298141	307.123826544844	938.737111879674	1079.527410604426	301.028798559449	911.979934825076	821.976968010613	324.138733795976	1111.495021196000	1083.673987743489	891.492546723954	1340.509367733536	970.036901281089	868.993980375369	
4	48.161500000000	859.296941616606	989.987849957666	597.760572605304	1045.918274598689	1414.564460149260	410.454058136110	1151.315689781095	1341.389071907886	566.220435183059	1081.101908056926	1416.510797830445	744.468736884500	1029.638567979255	1476.234152487832	568.743339904318	1094.505376387735	921.974869024732	702.391713954312	1066.073814881288	944.632077921196	431.491383339311	1145.558956035299	727.196220048900	651.260331424864	1076.909928910147	607.774817651010	706.031443680568	1150.478173641464	566.169378574742	615.794356604441	1154.932318255809	468.238021689256	617.370949015611	1153.226016385316	772.355924114880	442.771838239099	1103.003337073539	639.646861579348	350.315293035890	1222.309865138381	590.462563819634	405.233036760169	1237.402190226624	500.199816671765	387.239905345606	1166.140575214682	433.856178209397	378.231552482888	1019.342813576734	404.283023494266	333.412444840892	1000.585554341844	272.251786414757	379.075461829412	1103.912284169372	382.755906418524	619.153204078602	1014.527324873288	291.825480983786	680.228877053270	1029.200240426648	196.455548109305	607.527725292515	863.059509177790	48.827776081779	578.418231793233	1037.967941719496	96.788078169122	608.125739682266	949.105256065793	38.918655362255	648.626483688169	1156.618797201525	40.422496811641	630.450966855290	806.631063769154	211.971864780630	420.014196049475	860.024124780415	174.027632507854	332.875272860813	966.318961226653	178.001826810836	350.174624765663	1040.789202035259	67.666733736861	306.468364646301	923.591104542331	1083.609155330679	304.372302478927	886.885370721963	827.519920241244	333.623846447481	1127.236266539352	1081.323737971913	889.498245959539	1361.693917141163	981.357483095275	862.491814785804	
